<?xml version="1.0" encoding="UTF-8"?>
<svg id="a" data-name="Layer 1" xmlns="http://www.w3.org/2000/svg" viewBox="0 0 792 612">
  <defs>
    <style>
      .b {
        stroke: #ffcd05;
      }

      .b, .c, .d, .e {
        fill: none;
        stroke-miterlimit: 10;
        stroke-width: 7.97px;
      }

      .c {
        stroke: #ef4823;
      }

      .d {
        stroke: #f26822;
      }

      .e {
        stroke: #ed2224;
      }
    </style>
  </defs>
  <path class="b" d="M388.11,95.33h-73.9c-6.51,0-12.54-3.42-15.88-9.01L245.76,14.83l-24.27,34.33-58.6-20.72-90.76,62.27c-3.53,2.98-8.01,4.61-12.63,4.61H8.51"/>
  <path class="d" d="M388.11,119.33h-94.09c-3.71,0-7.34-1.06-10.46-3.06l-59.11-42.06-46.17,13.61-40.25-13.61-48.85,40.7c-3.43,2.86-7.75,4.42-12.22,4.42H8.51"/>
  <path class="c" d="M388.11,143.34h-107.3c-3.44,0-6.81-.92-9.78-2.67l-36.91-21.8-26.26,9.87-49.72-15.78-63.01,28.95c-2.28,.95-4.72,1.44-7.19,1.44H8.51"/>
  <path class="e" d="M388.11,167.35h-94.26c-1.28,0-2.56-.13-3.82-.39l-92.52-19.34-105.57,19.7c-.96,.15,.98,0,0,0H8.51"/>
</svg>